<mxfile host="Electron" modified="2024-04-19T21:27:39.681Z" agent="Mozilla/5.0 (Windows NT 10.0; Win64; x64) AppleWebKit/537.36 (KHTML, like Gecko) draw.io/24.2.5 Chrome/120.0.6099.109 Electron/28.1.0 Safari/537.36" etag="LUrSv_BxKaj0qvho3_iN" version="24.2.5" type="device">
  <diagram name="ページ1" id="LE8fIzdrHe0wcv1LTvfw">
    <mxGraphModel dx="866" dy="518" grid="1" gridSize="10" guides="1" tooltips="1" connect="1" arrows="1" fold="1" page="1" pageScale="1" pageWidth="1600" pageHeight="1200" math="0" shadow="0">
      <root>
        <mxCell id="0" />
        <mxCell id="cFaB45KztUIKXS-_cTrr-4" value="背景" style="locked=1;" parent="0" visible="0" />
        <mxCell id="cFaB45KztUIKXS-_cTrr-5" value="" style="rounded=0;whiteSpace=wrap;html=1;strokeWidth=3;" parent="cFaB45KztUIKXS-_cTrr-4" vertex="1">
          <mxGeometry x="1" y="1" width="1595" height="1180" as="geometry" />
        </mxCell>
        <mxCell id="cFaB45KztUIKXS-_cTrr-6" value="" style="rounded=0;whiteSpace=wrap;html=1;fillColor=#B3B3B3;fontColor=#333333;strokeColor=#666666;" parent="cFaB45KztUIKXS-_cTrr-4" vertex="1">
          <mxGeometry width="1595" height="60" as="geometry" />
        </mxCell>
        <mxCell id="cFaB45KztUIKXS-_cTrr-7" value="&lt;font style=&quot;font-size: 48px;&quot;&gt;×&lt;/font&gt;" style="rounded=0;whiteSpace=wrap;html=1;" parent="cFaB45KztUIKXS-_cTrr-4" vertex="1">
          <mxGeometry x="1550" y="10" width="40" height="40" as="geometry" />
        </mxCell>
        <mxCell id="cFaB45KztUIKXS-_cTrr-8" value="" style="rounded=0;whiteSpace=wrap;html=1;" parent="cFaB45KztUIKXS-_cTrr-4" vertex="1">
          <mxGeometry x="830" y="670" width="120" height="60" as="geometry" />
        </mxCell>
        <mxCell id="cFaB45KztUIKXS-_cTrr-9" value="ウインドウ" style="locked=1;" parent="0" />
        <mxCell id="cFaB45KztUIKXS-_cTrr-10" value="" style="rounded=0;whiteSpace=wrap;html=1;strokeWidth=3;" parent="cFaB45KztUIKXS-_cTrr-9" vertex="1">
          <mxGeometry x="1" y="1" width="1595" height="1159" as="geometry" />
        </mxCell>
        <mxCell id="cFaB45KztUIKXS-_cTrr-11" value="" style="rounded=0;whiteSpace=wrap;html=1;fillColor=#B3B3B3;fontColor=#333333;strokeColor=#666666;" parent="cFaB45KztUIKXS-_cTrr-9" vertex="1">
          <mxGeometry width="1595" height="60" as="geometry" />
        </mxCell>
        <mxCell id="cFaB45KztUIKXS-_cTrr-12" value="&lt;font style=&quot;font-size: 48px;&quot;&gt;×&lt;/font&gt;" style="rounded=0;whiteSpace=wrap;html=1;" parent="cFaB45KztUIKXS-_cTrr-9" vertex="1">
          <mxGeometry x="1550" y="10" width="40" height="40" as="geometry" />
        </mxCell>
        <mxCell id="cFaB45KztUIKXS-_cTrr-14" value="名称未設定レイヤ" style="" parent="0" />
        <mxCell id="kMiXoxbS_A_sSDOUyn5A-3" value="&lt;span style=&quot;font-size: 30px;&quot;&gt;各種Pay&lt;/span&gt;" style="rounded=0;whiteSpace=wrap;html=1;align=right;dashed=1;dashPattern=8 8;verticalAlign=bottom;" parent="cFaB45KztUIKXS-_cTrr-14" vertex="1">
          <mxGeometry x="223" y="156" width="170" height="46" as="geometry" />
        </mxCell>
        <mxCell id="kMiXoxbS_A_sSDOUyn5A-4" value="&lt;span style=&quot;font-size: 30px;&quot;&gt;1233&lt;/span&gt;" style="rounded=0;whiteSpace=wrap;html=1;align=right;fillColor=#CCCCCC;" parent="cFaB45KztUIKXS-_cTrr-14" vertex="1">
          <mxGeometry x="413" y="154" width="190" height="48" as="geometry" />
        </mxCell>
        <mxCell id="kMiXoxbS_A_sSDOUyn5A-5" value="&lt;span style=&quot;font-size: 30px;&quot;&gt;仮払いPay&lt;/span&gt;" style="rounded=0;whiteSpace=wrap;html=1;align=left;fillColor=#CCCCCC;" parent="cFaB45KztUIKXS-_cTrr-14" vertex="1">
          <mxGeometry x="643" y="154" width="420" height="48" as="geometry" />
        </mxCell>
        <mxCell id="kMiXoxbS_A_sSDOUyn5A-6" value="&lt;span style=&quot;font-size: 30px;&quot;&gt;摘要&lt;/span&gt;" style="rounded=0;whiteSpace=wrap;html=1;align=right;dashed=1;dashPattern=8 8;verticalAlign=bottom;" parent="cFaB45KztUIKXS-_cTrr-14" vertex="1">
          <mxGeometry x="237" y="89" width="160" height="46" as="geometry" />
        </mxCell>
        <mxCell id="kMiXoxbS_A_sSDOUyn5A-7" value="&lt;span style=&quot;font-size: 30px;&quot;&gt;ﾌﾘｺﾐ ｾｲｼﾞﾀﾞﾝﾀｲ ｻﾌﾞﾛｳ&lt;/span&gt;" style="rounded=0;whiteSpace=wrap;html=1;align=left;" parent="cFaB45KztUIKXS-_cTrr-14" vertex="1">
          <mxGeometry x="417" y="87" width="340" height="48" as="geometry" />
        </mxCell>
        <mxCell id="kMiXoxbS_A_sSDOUyn5A-8" value="&lt;span style=&quot;font-size: 30px;&quot;&gt;金融機関&lt;/span&gt;" style="rounded=0;whiteSpace=wrap;html=1;align=right;dashed=1;dashPattern=8 8;verticalAlign=bottom;" parent="cFaB45KztUIKXS-_cTrr-14" vertex="1">
          <mxGeometry x="223" y="226" width="170" height="46" as="geometry" />
        </mxCell>
        <mxCell id="kMiXoxbS_A_sSDOUyn5A-9" value="&lt;span style=&quot;font-size: 30px;&quot;&gt;1233&lt;/span&gt;" style="rounded=0;whiteSpace=wrap;html=1;align=right;" parent="cFaB45KztUIKXS-_cTrr-14" vertex="1">
          <mxGeometry x="413" y="224" width="190" height="48" as="geometry" />
        </mxCell>
        <mxCell id="kMiXoxbS_A_sSDOUyn5A-10" value="&lt;span style=&quot;font-size: 30px;&quot;&gt;首都圏信用金庫&lt;/span&gt;" style="rounded=0;whiteSpace=wrap;html=1;align=left;" parent="cFaB45KztUIKXS-_cTrr-14" vertex="1">
          <mxGeometry x="643" y="224" width="420" height="48" as="geometry" />
        </mxCell>
        <mxCell id="kMiXoxbS_A_sSDOUyn5A-11" value="&lt;span style=&quot;font-size: 30px;&quot;&gt;支店&lt;/span&gt;" style="rounded=0;whiteSpace=wrap;html=1;align=right;dashed=1;dashPattern=8 8;verticalAlign=bottom;" parent="cFaB45KztUIKXS-_cTrr-14" vertex="1">
          <mxGeometry x="223" y="296" width="170" height="46" as="geometry" />
        </mxCell>
        <mxCell id="kMiXoxbS_A_sSDOUyn5A-12" value="&lt;span style=&quot;font-size: 30px;&quot;&gt;987&lt;/span&gt;" style="rounded=0;whiteSpace=wrap;html=1;align=right;" parent="cFaB45KztUIKXS-_cTrr-14" vertex="1">
          <mxGeometry x="413" y="294" width="190" height="48" as="geometry" />
        </mxCell>
        <mxCell id="kMiXoxbS_A_sSDOUyn5A-13" value="&lt;span style=&quot;font-size: 30px;&quot;&gt;本店&lt;/span&gt;" style="rounded=0;whiteSpace=wrap;html=1;align=left;" parent="cFaB45KztUIKXS-_cTrr-14" vertex="1">
          <mxGeometry x="643" y="294" width="420" height="48" as="geometry" />
        </mxCell>
        <mxCell id="kMiXoxbS_A_sSDOUyn5A-14" value="&lt;span style=&quot;font-size: 30px;&quot;&gt;口座種別&lt;/span&gt;" style="rounded=0;whiteSpace=wrap;html=1;align=right;dashed=1;dashPattern=8 8;verticalAlign=bottom;" parent="cFaB45KztUIKXS-_cTrr-14" vertex="1">
          <mxGeometry x="223" y="366" width="170" height="46" as="geometry" />
        </mxCell>
        <mxCell id="kMiXoxbS_A_sSDOUyn5A-15" value="&lt;span style=&quot;font-size: 30px;&quot;&gt;▼1普通口座&lt;/span&gt;" style="rounded=0;whiteSpace=wrap;html=1;align=left;" parent="cFaB45KztUIKXS-_cTrr-14" vertex="1">
          <mxGeometry x="413" y="364" width="190" height="48" as="geometry" />
        </mxCell>
        <mxCell id="kMiXoxbS_A_sSDOUyn5A-16" value="&lt;span style=&quot;font-size: 30px;&quot;&gt;口座番号&lt;/span&gt;" style="rounded=0;whiteSpace=wrap;html=1;align=right;dashed=1;dashPattern=8 8;verticalAlign=bottom;" parent="cFaB45KztUIKXS-_cTrr-14" vertex="1">
          <mxGeometry x="222" y="431" width="170" height="46" as="geometry" />
        </mxCell>
        <mxCell id="kMiXoxbS_A_sSDOUyn5A-17" value="&lt;span style=&quot;font-size: 30px;&quot;&gt;7654321&lt;/span&gt;" style="rounded=0;whiteSpace=wrap;html=1;align=right;" parent="cFaB45KztUIKXS-_cTrr-14" vertex="1">
          <mxGeometry x="412" y="429" width="641" height="48" as="geometry" />
        </mxCell>
        <mxCell id="kMiXoxbS_A_sSDOUyn5A-18" value="&lt;span style=&quot;font-size: 30px;&quot;&gt;口座名義人&lt;/span&gt;" style="rounded=0;whiteSpace=wrap;html=1;align=right;dashed=1;dashPattern=8 8;verticalAlign=bottom;" parent="cFaB45KztUIKXS-_cTrr-14" vertex="1">
          <mxGeometry x="222" y="501" width="170" height="46" as="geometry" />
        </mxCell>
        <mxCell id="kMiXoxbS_A_sSDOUyn5A-19" value="&lt;span style=&quot;font-size: 30px;&quot;&gt;ｾｲｼﾞﾀﾞﾝﾀｲ ｻﾌﾞﾛｳ&lt;/span&gt;" style="rounded=0;whiteSpace=wrap;html=1;align=left;" parent="cFaB45KztUIKXS-_cTrr-14" vertex="1">
          <mxGeometry x="412" y="499" width="641" height="48" as="geometry" />
        </mxCell>
        <mxCell id="6I91ib_1TXN0fq9ziBc1-0" value="&lt;span style=&quot;font-size: 30px; text-align: left;&quot;&gt;各種Pay検索&lt;/span&gt;" style="rounded=1;whiteSpace=wrap;html=1;" vertex="1" parent="cFaB45KztUIKXS-_cTrr-14">
          <mxGeometry x="1110" y="158" width="250" height="44" as="geometry" />
        </mxCell>
        <mxCell id="6I91ib_1TXN0fq9ziBc1-1" value="&lt;span style=&quot;font-size: 30px; text-align: left;&quot;&gt;全銀金融機関検索&lt;/span&gt;" style="rounded=1;whiteSpace=wrap;html=1;" vertex="1" parent="cFaB45KztUIKXS-_cTrr-14">
          <mxGeometry x="1110" y="228" width="330" height="44" as="geometry" />
        </mxCell>
      </root>
    </mxGraphModel>
  </diagram>
</mxfile>
